<svg id="flat" height="512" viewBox="0 0 128 128" width="512" xmlns="http://www.w3.org/2000/svg"><path d="m71.7 22.573c6.859 0 12.42 4.453 12.42 9.947a9.232 9.232 0 0 1 -4.264 7.488l1.273 3.867-4.029-2.408a14.917 14.917 0 0 1 -5.4 1c-6.859 0-12.42-4.453-12.42-9.946s5.56-9.948 12.42-9.948z" fill="#ef5361"/><path d="m109.889 111.412v-26.829l-4.352-2.039-1.181-6.273h-15.391l-1.182 6.273-4.211 1.973v26.895z" fill="#e2b48a"/><path d="m108.213 113.774v-29.976l-1.026-.481v3.495h-1.376v1.833h-20.261v-5.055l-1.307.613v29.571z" fill="#bac2d3"/><path d="m98.458 88.686h-5.785l-1.102 2.569 3.32 4.226-1.93 9.265 3.697 8.01 4.141-8.615-1.735-8.833 2.629-4.323z" fill="#da2a47"/><path d="m126.876 99.973a13.291 13.291 0 0 0 -7.611-11l-11.01-5.158c-.9 5.112-3.029 9.8-5.345 14.409-1.075 2.14-2.082 4.272-3.029 6.467-.524 1.215-3.221 8.321-3.221 8.321s-4.372-10.883-5.167-12.946a70.8 70.8 0 0 0 -3.339-8.356c-.245-.454-.5-.9-.766-1.343-2.433-.955-3.683-3.021-3.637-5.936l-9.7 4.542a13.291 13.291 0 0 0 -7.611 11l-1.124 14.372h62.684z" fill="#707583"/><path d="m126.876 99.973a13.291 13.291 0 0 0 -7.611-11l-11.01-5.158c-.9 5.112-3.029 9.8-5.345 14.409-1.075 2.14-2.082 4.272-3.029 6.467-.524 1.215-3.221 8.321-3.221 8.321s-4.372-10.883-5.167-12.946a70.8 70.8 0 0 0 -3.339-8.356c-.245-.454-.5-.9-.766-1.343-2.433-.955-3.683-3.021-3.637-5.936l-9.7 4.542a13.291 13.291 0 0 0 -7.611 11l-1.124 14.372h62.684z" fill="#43567c"/><path d="m128 114.345h-8.486l-1.124-14.374a13.3 13.3 0 0 0 -7.616-11l-3.355-1.571a34.4 34.4 0 0 0 .834-3.586l11.013 5.16a13.292 13.292 0 0 1 7.61 11z" fill="#384868"/><path d="m105.132 80.368-8.472 8.277 7.562 5.196 3.538-10.267z" fill="#d9e2e9"/><path d="m85.56 83.574 3.834 10.028 7.266-4.957-8.471-8.277z" fill="#d9e2e9"/><path d="m109.965 84.618-4.833-4.25-.011-.011s-.088 12.7-8.463 32.4c-8.376-19.7-8.464-32.4-8.464-32.4l-.01.011-4.834 4.25-.85 7.182 4.008-.641-3.005 4.556c1.742 4.248 13.153 17.5 13.153 17.5 1.8-1.983 11.682-13.428 13.221-17.18l-3.074-4.877 4.486.128z" fill="#4c6389"/><g fill="#f0c191"><ellipse cx="110.214" cy="63.692" rx="5.056" ry="2.528" transform="matrix(.138 -.99 .99 .138 31.945 164.081)"/><ellipse cx="82.618" cy="63.692" rx="2.528" ry="5.056" transform="matrix(.99 -.138 .138 .99 -7.987 11.99)"/><path d="m109.944 54.426-3.067-6.526-10.271-2.1-10.271 2.1-3.067 6.529.043 8.036s-.576 6.963 2.494 11.811 7.2 7.526 10.8 7.526 7.73-2.679 10.8-7.526 2.495-11.814 2.495-11.814z"/></g><path d="m111.716 49.7c-.975-5.766-8.172-12.065-17.837-11.256s-9.99 7.963-9.99 7.963-3-.975-3 5.61a54.744 54.744 0 0 0 2.006 13.27.506.506 0 0 0 .993-.146c-.113-13.194 3.412-15.892 3.412-15.892s15.46-1.688 18.628 1.4c2.766 2.7 2.971 11.635 2.978 13.856a.506.506 0 0 0 .507.5h.473a.505.505 0 0 0 .493-.388c.434-1.844 2.194-9.841 1.337-14.917z" fill="#384868"/><path d="m44.405 111.423v-26.731l-4.336-2.031-1.177-6.25h-15.335l-1.177 6.25-4.196 1.966v26.796z" fill="#e2b48a"/><path d="m43.846 113.892v-29.462l-2.134-.999v3.482h-1.37v1.827h-20.187v-5.037l-.964.452v29.737z" fill="#bac2d3"/><path d="m33.015 88.78h-5.764l-1.098 2.56 3.309 4.21-1.924 9.232 3.684 7.98 4.126-8.583-1.729-8.801 2.62-4.307z" fill="#65b54e"/><path d="m61.329 100.026a13.242 13.242 0 0 0 -7.584-10.958l-10.969-5.139c-.894 5.093-3.018 9.76-5.325 14.356-1.071 2.132-2.074 4.257-3.017 6.443-.523 1.211-3.21 8.291-3.21 8.291s-4.356-10.843-5.148-12.9a70.534 70.534 0 0 0 -3.327-8.319c-.244-.452-.5-.9-.763-1.338-2.424-.951-3.669-3.01-3.623-5.914l-9.663 4.52a13.241 13.241 0 0 0 -7.58 10.958l-1.12 14.319h62.449z" fill="#707583"/><path d="m61.329 100.026a13.242 13.242 0 0 0 -7.584-10.958l-10.969-5.139c-.894 5.093-3.018 9.76-5.325 14.356-1.071 2.132-2.074 4.257-3.017 6.443-.523 1.211-3.21 8.291-3.21 8.291s-4.356-10.843-5.148-12.9a70.534 70.534 0 0 0 -3.327-8.319c-.244-.452-.5-.9-.763-1.338-2.424-.951-3.669-3.01-3.623-5.914l-9.663 4.52a13.241 13.241 0 0 0 -7.58 10.958l-1.12 14.319h62.449z" fill="#384868"/><path d="m62.449 114.345h-8.455l-1.12-14.321a13.25 13.25 0 0 0 -7.588-10.955l-3.343-1.569a34.1 34.1 0 0 0 .831-3.573l10.972 5.141a13.242 13.242 0 0 1 7.582 10.955z" fill="#2f3a5a"/><path d="m39.664 80.493-8.44 8.247 7.534 5.177 3.526-10.23z" fill="#d9e2e9"/><path d="m20.165 83.687 3.819 9.991 7.24-4.938-8.44-8.247z" fill="#d9e2e9"/><path d="m44.48 84.728-4.816-4.235-.01-.011s-.088 12.653-8.432 32.28c-8.345-19.627-8.433-32.28-8.433-32.28l-.01.011-4.816 4.235-.845 7.159 3.993-.639-2.994 4.539c1.736 4.232 13.105 17.437 13.105 17.437 1.789-1.975 11.639-13.379 13.173-17.117l-3.063-4.859 4.469.128z" fill="#43567c"/><path d="m44.838 58.812c-1.291-.135-2.53 1.6-2.77 3.878s.613 4.232 1.9 4.368 2.53-1.6 2.769-3.878-.609-4.232-1.899-4.368z" fill="#f0c191"/><path d="m16.515 58.812c1.29-.135 2.53 1.6 2.769 3.878s-.613 4.232-1.9 4.368-2.53-1.6-2.769-3.878.61-4.232 1.9-4.368z" fill="#f0c191"/><path d="m43.4 51.821-2.81-7.293-9.672.648-9.671-.648-4.965 9.3 1.46 12.514s.7 5.656 3.753 9.06 5.7 5.672 9.423 5.591c3.72.081 6.365-2.188 9.424-5.591s3.753-9.06 3.753-9.06z" fill="#f0c191"/><path d="m44.411 45.434c-2.278-6.959-7.915-5.677-7.915-5.677-5.889-4.609-19.717.939-21.254 8.963-1.142 5.98.458 13.28 1.35 16.617a.748.748 0 0 0 1.465-.273c-.527-4.51.646-9.764 1.526-12.874a2.938 2.938 0 0 1 3.563-2.033c2.5.652 4.572 1.275 6.235 1.827a7.656 7.656 0 0 0 7.919-2.065c2.534-2.623 3.616 2.544 5.086 5.886 1.445 3.285 1.122 7.627.9 9.454a.563.563 0 0 0 1.113.164c.689-4.117 1.737-14.718.012-19.989z" fill="#384868"/><path d="m59.279 13.655c-8.774 0-15.887 5.7-15.887 12.723a11.81 11.81 0 0 0 5.454 9.579l-1.628 4.943 5.158-3.08a19.1 19.1 0 0 0 6.9 1.277c8.774 0 15.887-5.7 15.887-12.723s-7.11-12.719-15.884-12.719z" fill="#6bb3d9"/><path d="m52.924 23.938a1.985 1.985 0 1 0 1.985 1.985 1.985 1.985 0 0 0 -1.985-1.985z" fill="#e1e6e9"/><path d="m59.279 23.938a1.985 1.985 0 1 0 1.985 1.985 1.985 1.985 0 0 0 -1.985-1.985z" fill="#e1e6e9"/><path d="m65.634 23.938a1.985 1.985 0 1 0 1.985 1.985 1.985 1.985 0 0 0 -1.985-1.985z" fill="#e1e6e9"/></svg>