<svg id="flat" height="512" viewBox="0 0 128 128" width="512" xmlns="http://www.w3.org/2000/svg"><path d="m123.87 70.427a6.6 6.6 0 0 1 -5.43-3.014 7.842 7.842 0 0 1 -.716-6.79 6.646 6.646 0 0 1 1.324-2.321 17.7 17.7 0 0 0 -9.628-2.6.986.986 0 0 1 -1.028-.971 1 1 0 0 1 .971-1.028 19.582 19.582 0 0 1 11.41 3.332c2.017-.935 4.5-.612 6.94-.081a1 1 0 1 1 -.426 1.954 12.8 12.8 0 0 0 -4.566-.381 18.691 18.691 0 0 1 1.532 1.5c1.217 1.335 3.9 4.843 2.6 8.566a2.408 2.408 0 0 1 -2.166 1.775 5.732 5.732 0 0 1 -.817.059zm-3.158-10.968a4.451 4.451 0 0 0 -1.1 1.816 5.909 5.909 0 0 0 .5 5.048 4.547 4.547 0 0 0 4.282 2.066.5.5 0 0 0 .565-.456c.976-2.784-1.429-5.725-2.189-6.56a16.976 16.976 0 0 0 -2.058-1.914z" fill="#43567c"/><path d="m62.215 34.053c-31.276 0-49.388 14.4-53.527 33.579h-6.1a3.088 3.088 0 0 0 -3.088 3.088v13.017a3.088 3.088 0 0 0 3.088 3.088h6.85c5.978 18.335 27.338 31.9 52.777 31.9 30.071 0 54.449-18.955 54.449-42.336s-15.958-42.336-54.449-42.336z" fill="#ffb3e2"/><path d="m111.222 55.239a43.433 43.433 0 0 1 2 13.416c.004 23.386-24.369 42.345-54.448 42.345-21.674 0-40.384-9.858-49.138-24.113v.5c6.23 18.046 27.4 31.338 52.583 31.338 30.064 0 54.452-18.954 54.452-42.325a40.78 40.78 0 0 0 -5.449-21.161z" fill="#efabd9"/><path d="m21.692 32.936a2.063 2.063 0 0 0 -3.259 1.94l2.792 21.024 15.769-11.828z" fill="#ffb3e2"/><path d="m87.416 110.336h-11.388a2.661 2.661 0 0 0 -2.656 2.831l.73 11.457a2.661 2.661 0 0 0 2.656 2.492h9.927a2.661 2.661 0 0 0 2.656-2.492l.731-11.457a2.663 2.663 0 0 0 -2.656-2.831z" fill="#efabd9"/><path d="m49.388 110.336h-11.388a2.661 2.661 0 0 0 -2.656 2.831l.73 11.457a2.661 2.661 0 0 0 2.656 2.492h9.927a2.661 2.661 0 0 0 2.656-2.492l.731-11.457a2.663 2.663 0 0 0 -2.656-2.831z" fill="#efabd9"/><path d="m26.338 54.38c-1.061.334-1.718 1.251-1.467 2.046a1.818 1.818 0 0 0 2.375.836 1.819 1.819 0 0 0 1.468-2.046 1.819 1.819 0 0 0 -2.376-.836z" fill="#2f3a5a"/><path d="m81.821 46.732a58.671 58.671 0 0 0 -40.085 0 2.475 2.475 0 0 0 -1.446 3.268l.019.046a2.446 2.446 0 0 0 3.082 1.382 53.7 53.7 0 0 1 36.775 0 2.446 2.446 0 0 0 3.082-1.382l.019-.046a2.475 2.475 0 0 0 -1.446-3.268z" fill="#d686b5"/><circle cx="62.668" cy="23.052" fill="#ed933a" r="22.168" transform="matrix(.973 -.23 .23 .973 -3.62 15.015)"/><circle cx="62.669" cy="23.052" fill="#f6ba5b" r="16.523" transform="matrix(.973 -.23 .23 .973 -3.62 15.015)"/><circle cx="62.668" cy="23.052" fill="#f6ba5b" r="16.62" transform="matrix(.973 -.23 .23 .973 -3.62 15.015)"/><g fill="#d38333"><path d="m62.669 5.387a.615.615 0 0 1 -.615-.615v-2.52a.615.615 0 0 1 1.23 0v2.52a.615.615 0 0 1 -.615.615z"/><path d="m62.669 44.214a.615.615 0 0 1 -.615-.615v-2.521a.615.615 0 0 1 1.23 0v2.522a.615.615 0 0 1 -.615.614z"/><path d="m83.342 23.541h-2.52a.616.616 0 1 1 0-1.231h2.52a.616.616 0 0 1 0 1.231z"/><path d="m44.515 23.541h-2.515a.616.616 0 0 1 0-1.231h2.52a.616.616 0 0 1 0 1.231z"/><path d="m75.5 10.7a.615.615 0 0 1 -.435-1.05l1.783-1.782a.615.615 0 1 1 .87.87l-1.783 1.782a.612.612 0 0 1 -.435.18z"/><path d="m48.05 38.159a.615.615 0 0 1 -.435-1.05l1.785-1.782a.615.615 0 0 1 .869.87l-1.782 1.782a.614.614 0 0 1 -.437.18z"/><path d="m77.287 38.159a.612.612 0 0 1 -.435-.18l-1.783-1.779a.615.615 0 1 1 .87-.87l1.783 1.782a.615.615 0 0 1 -.435 1.05z"/><path d="m49.833 10.7a.612.612 0 0 1 -.435-.18l-1.783-1.778a.615.615 0 1 1 .87-.87l1.782 1.782a.615.615 0 0 1 -.434 1.05z"/><path d="m55.722 6.769a.615.615 0 0 1 -.569-.379l-.964-2.329a.615.615 0 1 1 1.136-.471l.965 2.329a.615.615 0 0 1 -.568.85z"/><path d="m70.58 42.641a.615.615 0 0 1 -.568-.38l-.965-2.329a.615.615 0 1 1 1.137-.471l.964 2.329a.617.617 0 0 1 -.568.851z"/><path d="m79.44 16.594a.616.616 0 0 1 -.24-1.184l2.329-.964a.615.615 0 1 1 .471 1.136l-2.329.965a.608.608 0 0 1 -.231.047z"/><path d="m43.568 31.452a.615.615 0 0 1 -.235-1.184l2.328-.964a.615.615 0 0 1 .471 1.137l-2.328.964a.613.613 0 0 1 -.236.047z"/><path d="m69.615 6.769a.615.615 0 0 1 -.568-.85l.965-2.329a.615.615 0 1 1 1.136.471l-.964 2.329a.617.617 0 0 1 -.569.379z"/><path d="m54.757 42.641a.617.617 0 0 1 -.568-.851l.964-2.329a.615.615 0 1 1 1.137.471l-.965 2.329a.616.616 0 0 1 -.568.38z"/><path d="m81.768 31.452a.612.612 0 0 1 -.235-.047l-2.333-.964a.615.615 0 0 1 .471-1.137l2.329.964a.615.615 0 0 1 -.236 1.184z"/><path d="m45.9 16.594a.613.613 0 0 1 -.236-.047l-2.328-.965a.615.615 0 1 1 .471-1.136l2.328.964a.615.615 0 0 1 -.235 1.184z"/></g><path d="m79.193 23.05a16.533 16.533 0 0 1 -9.607 15.011 16.525 16.525 0 0 0 -15.386-29.197 16.529 16.529 0 0 1 24.993 14.186z" fill="#e8ae58"/><path d="m62.728 23.928a5.93 5.93 0 1 1 5.928-5.928.923.923 0 1 1 -1.845 0 4.084 4.084 0 1 0 -4.083 4.084.923.923 0 0 1 0 1.846z" fill="#de8c34"/><path d="m62.728 33.941a5.936 5.936 0 0 1 -5.93-5.93.923.923 0 0 1 1.846 0 4.084 4.084 0 1 0 4.084-4.083.923.923 0 1 1 0-1.846 5.93 5.93 0 0 1 0 11.859z" fill="#de8c34"/><path d="m62.728 13.915a.923.923 0 0 1 -.923-.923v-1.887a.923.923 0 0 1 1.845 0v1.887a.922.922 0 0 1 -.922.923z" fill="#de8c34"/><path d="m62.728 35.844a.923.923 0 0 1 -.923-.923v-1.886a.923.923 0 1 1 1.845 0v1.886a.922.922 0 0 1 -.922.923z" fill="#de8c34"/></svg>